<mxfile host="app.diagrams.net" modified="2023-09-20T09:38:30.426Z" agent="Mozilla/5.0 (Macintosh; Intel Mac OS X 10_15_7) AppleWebKit/537.36 (KHTML, like Gecko) Chrome/116.0.0.0 Safari/537.36" etag="RUZwMFMNXj4OdCJy8ot8" version="21.7.5" type="github">
  <diagram id="gjnJr7tE-dAtpMI1hC8i" name="Page-1">
    <mxGraphModel dx="1545" dy="820" grid="1" gridSize="10" guides="1" tooltips="1" connect="1" arrows="1" fold="1" page="1" pageScale="1" pageWidth="827" pageHeight="1169" math="0" shadow="0">
      <root>
        <mxCell id="0" />
        <mxCell id="1" parent="0" />
        <mxCell id="6El1_JEk4RSKTV5vi_TU-1" value="&lt;span style=&quot;font-size: 16px&quot;&gt;纹理画布管理器&lt;br&gt;TextureCanvasManager&lt;/span&gt;" style="rounded=1;whiteSpace=wrap;html=1;fillColor=#f5f5f5;fontColor=#333333;strokeColor=#666666;" parent="1" vertex="1">
          <mxGeometry x="47.5" y="130" width="992.5" height="70" as="geometry" />
        </mxCell>
        <mxCell id="6El1_JEk4RSKTV5vi_TU-13" value="&lt;font style=&quot;font-size: 16px&quot;&gt;展示层&lt;br&gt;&lt;/font&gt;" style="rounded=1;whiteSpace=wrap;html=1;fillColor=#dae8fc;strokeColor=#6c8ebf;" parent="1" vertex="1">
          <mxGeometry x="40" y="240" width="150" height="250" as="geometry" />
        </mxCell>
        <mxCell id="6El1_JEk4RSKTV5vi_TU-14" value="&lt;font style=&quot;font-size: 16px&quot;&gt;&lt;br&gt;&lt;/font&gt;" style="rounded=1;whiteSpace=wrap;html=1;fillColor=#dae8fc;strokeColor=#6c8ebf;" parent="1" vertex="1">
          <mxGeometry x="230" y="240" width="820" height="260" as="geometry" />
        </mxCell>
        <mxCell id="6El1_JEk4RSKTV5vi_TU-2" value="&lt;font style=&quot;font-size: 16px&quot;&gt;2D画布&lt;br&gt;sketchCanvas&lt;br&gt;&lt;/font&gt;" style="rounded=1;whiteSpace=wrap;html=1;fillColor=#d5e8d4;strokeColor=#82b366;" parent="1" vertex="1">
          <mxGeometry x="257" y="260" width="166" height="70" as="geometry" />
        </mxCell>
        <mxCell id="6El1_JEk4RSKTV5vi_TU-8" value="&lt;blockquote style=&quot;margin: 0 0 0 40px ; border: none ; padding: 0px&quot;&gt;&lt;/blockquote&gt;&lt;span style=&quot;font-size: 16px&quot;&gt;&lt;div style=&quot;text-align: left&quot;&gt;&lt;span&gt;&lt;br&gt;&lt;/span&gt;&lt;/div&gt;&lt;div style=&quot;text-align: left&quot;&gt;&lt;span&gt;绘制分区纹理和图片&amp;nbsp; &amp;nbsp; &amp;nbsp; &amp;nbsp;绘制背景颜色&amp;nbsp; &amp;nbsp; &amp;nbsp; &amp;nbsp; &amp;nbsp; &amp;nbsp; &amp;nbsp; &amp;nbsp; &amp;nbsp;绘制像素&lt;/span&gt;&lt;/div&gt;&lt;div style=&quot;text-align: left&quot;&gt;&lt;span&gt;drawImage&amp;nbsp; &amp;nbsp; &amp;nbsp; &amp;nbsp; &amp;nbsp; &amp;nbsp; &amp;nbsp; &amp;nbsp; &amp;nbsp; &amp;nbsp; &amp;nbsp; drawBackgroundColor&amp;nbsp; &amp;nbsp;drawRect&lt;/span&gt;&lt;/div&gt;&lt;/span&gt;&lt;font style=&quot;font-size: 16px&quot;&gt;&lt;br&gt;&lt;/font&gt;" style="rounded=1;whiteSpace=wrap;html=1;fillColor=#d5e8d4;strokeColor=#82b366;" parent="1" vertex="1">
          <mxGeometry x="500" y="260" width="510" height="70" as="geometry" />
        </mxCell>
        <mxCell id="6El1_JEk4RSKTV5vi_TU-7" value="&lt;font style=&quot;font-size: 16px&quot;&gt;&amp;nbsp; 动态纹理（实时预览）&lt;br&gt;DressDynamicTexture&lt;br&gt;&lt;/font&gt;" style="rounded=1;whiteSpace=wrap;html=1;fillColor=#ffe6cc;strokeColor=#d79b00;" parent="1" vertex="1">
          <mxGeometry x="257" y="350" width="200" height="60" as="geometry" />
        </mxCell>
        <mxCell id="6El1_JEk4RSKTV5vi_TU-11" value="&lt;font style=&quot;font-size: 16px&quot;&gt;每帧更新纹理的数据&lt;br&gt;updateDynamicTexture&lt;br&gt;&lt;/font&gt;" style="rounded=1;whiteSpace=wrap;html=1;fillColor=#ffe6cc;strokeColor=#d79b00;" parent="1" vertex="1">
          <mxGeometry x="500" y="350" width="280" height="60" as="geometry" />
        </mxCell>
        <mxCell id="6El1_JEk4RSKTV5vi_TU-16" value="&lt;font style=&quot;font-size: 16px&quot;&gt;数据层&lt;br&gt;&lt;/font&gt;" style="rounded=1;whiteSpace=wrap;html=1;fillColor=#f8cecc;strokeColor=#b85450;" parent="1" vertex="1">
          <mxGeometry x="38.75" y="540" width="150" height="190" as="geometry" />
        </mxCell>
        <mxCell id="6El1_JEk4RSKTV5vi_TU-18" value="&lt;font style=&quot;font-size: 16px&quot;&gt;&lt;br&gt;&lt;/font&gt;" style="rounded=1;whiteSpace=wrap;html=1;fillColor=#f8cecc;strokeColor=#b85450;" parent="1" vertex="1">
          <mxGeometry x="228.75" y="540" width="820" height="200" as="geometry" />
        </mxCell>
        <mxCell id="6El1_JEk4RSKTV5vi_TU-5" value="&lt;font style=&quot;font-size: 16px&quot;&gt;图片管理器&lt;br&gt;TextureImageManager&lt;br&gt;&lt;/font&gt;" style="rounded=1;whiteSpace=wrap;html=1;fillColor=#e1d5e7;strokeColor=#9673a6;" parent="1" vertex="1">
          <mxGeometry x="254.25" y="555" width="203" height="70" as="geometry" />
        </mxCell>
        <mxCell id="6El1_JEk4RSKTV5vi_TU-19" value="&lt;blockquote style=&quot;margin: 0 0 0 40px ; border: none ; padding: 0px&quot;&gt;&lt;/blockquote&gt;&lt;span style=&quot;font-size: 16px&quot;&gt;&lt;div style=&quot;text-align: left&quot;&gt;&lt;/div&gt;&lt;/span&gt;&lt;span style=&quot;font-size: 16px&quot;&gt;&lt;br&gt;处理图片的展示区&amp;nbsp;&lt;/span&gt;&lt;span style=&quot;text-align: left ; font-size: 16px&quot;&gt;&amp;nbsp; &amp;nbsp; &amp;nbsp; &amp;nbsp; &amp;nbsp; 处理屏幕事件&amp;nbsp; &amp;nbsp; &amp;nbsp; &amp;nbsp; &amp;nbsp; &amp;nbsp; &amp;nbsp; &amp;nbsp; &amp;nbsp;保存和恢复数据&lt;/span&gt;&lt;span style=&quot;font-size: 16px&quot;&gt;&lt;br&gt;&lt;/span&gt;&lt;span style=&quot;font-size: 16px&quot;&gt;&lt;div style=&quot;text-align: left&quot;&gt;&lt;span&gt;checkArea&amp;nbsp; &amp;nbsp; &amp;nbsp; &amp;nbsp; &amp;nbsp; &amp;nbsp; &amp;nbsp; &amp;nbsp; &amp;nbsp; &amp;nbsp; &amp;nbsp; &amp;nbsp;handleTouchMove&amp;nbsp; &amp;nbsp; &amp;nbsp; &amp;nbsp; &amp;nbsp; serialize&lt;/span&gt;&lt;/div&gt;&lt;/span&gt;&lt;font style=&quot;font-size: 16px&quot;&gt;&lt;br&gt;&lt;/font&gt;" style="rounded=1;whiteSpace=wrap;html=1;fillColor=#e1d5e7;strokeColor=#9673a6;" parent="1" vertex="1">
          <mxGeometry x="488.75" y="555" width="510" height="70" as="geometry" />
        </mxCell>
        <mxCell id="6El1_JEk4RSKTV5vi_TU-6" value="&lt;font style=&quot;font-size: 16px&quot;&gt;涂鸦画板管理器&lt;br&gt;TextureSketchManager&lt;br&gt;&lt;/font&gt;" style="rounded=1;whiteSpace=wrap;html=1;fillColor=#fff2cc;strokeColor=#d6b656;" parent="1" vertex="1">
          <mxGeometry x="255.75" y="660" width="200" height="60" as="geometry" />
        </mxCell>
        <mxCell id="6El1_JEk4RSKTV5vi_TU-20" value="&lt;blockquote style=&quot;margin: 0 0 0 40px ; border: none ; padding: 0px&quot;&gt;&lt;/blockquote&gt;&lt;span style=&quot;font-size: 16px&quot;&gt;&lt;div style=&quot;text-align: left&quot;&gt;&lt;/div&gt;&lt;/span&gt;&lt;span style=&quot;font-size: 16px&quot;&gt;&lt;br&gt;处理不同涂鸦模式&amp;nbsp;&lt;/span&gt;&lt;span style=&quot;text-align: left ; font-size: 16px&quot;&gt;&amp;nbsp; &amp;nbsp; &amp;nbsp; &amp;nbsp; &amp;nbsp; 处理屏幕事件&amp;nbsp; &amp;nbsp; &amp;nbsp; &amp;nbsp; &amp;nbsp; &amp;nbsp; &amp;nbsp; &amp;nbsp; &amp;nbsp;保存和恢复数据&lt;/span&gt;&lt;span style=&quot;font-size: 16px&quot;&gt;&lt;br&gt;&lt;/span&gt;&lt;span style=&quot;font-size: 16px&quot;&gt;&lt;div style=&quot;text-align: left&quot;&gt;&lt;span&gt;formatModePos&amp;nbsp; &amp;nbsp; &amp;nbsp; &amp;nbsp; &amp;nbsp; &amp;nbsp; &amp;nbsp; &amp;nbsp;handleTouchMove&amp;nbsp; &amp;nbsp; &amp;nbsp; &amp;nbsp; &amp;nbsp; serialize&lt;/span&gt;&lt;/div&gt;&lt;/span&gt;&lt;font style=&quot;font-size: 16px&quot;&gt;&lt;br&gt;&lt;/font&gt;" style="rounded=1;whiteSpace=wrap;html=1;fillColor=#fff2cc;strokeColor=#d6b656;" parent="1" vertex="1">
          <mxGeometry x="488.75" y="650" width="510" height="70" as="geometry" />
        </mxCell>
        <mxCell id="-eqO0h2llE_eY58wvObT-1" value="&lt;font style=&quot;font-size: 16px&quot;&gt;实时渲染3d Avatar&lt;br&gt;&lt;/font&gt;" style="rounded=1;whiteSpace=wrap;html=1;fillColor=#f5f5f5;fontColor=#333333;strokeColor=#666666;" vertex="1" parent="1">
          <mxGeometry x="257.25" y="430" width="200" height="60" as="geometry" />
        </mxCell>
        <mxCell id="-eqO0h2llE_eY58wvObT-2" value="&lt;font style=&quot;font-size: 16px&quot;&gt;动态纹理绑定到3d Avatar&lt;br&gt;&lt;/font&gt;" style="rounded=1;whiteSpace=wrap;html=1;fillColor=#f5f5f5;fontColor=#333333;strokeColor=#666666;" vertex="1" parent="1">
          <mxGeometry x="500" y="430" width="290" height="60" as="geometry" />
        </mxCell>
      </root>
    </mxGraphModel>
  </diagram>
</mxfile>
